<svg xmlns="http://www.w3.org/2000/svg" xmlns:xlink="http://www.w3.org/1999/xlink" id="body_1" preserveAspectRatio="xMinYMin meet" viewBox="0 0 793 1121"><defs><clipPath id="1"><path d="M0 841L0 -0.9000244L0 -0.9000244L595.3 -0.9000244L595.3 -0.9000244L595.3 841L595.3 841L0 841z" /></clipPath><clipPath id="2"><path d="M0 -0.9000244L595.3 -0.9000244L595.3 -0.9000244L595.3 841L595.3 841L0 841z" /></clipPath><clipPath id="3"><path d="M36.25 47.75L149.3 47.75L149.3 47.75L149.3 88.54999L149.3 88.54999L36.25 88.54999z" /></clipPath><clipPath id="4"><path d="M0 -0.9000244L595.3 -0.9000244L595.3 -0.9000244L595.3 841L595.3 841L0 841z" /></clipPath><clipPath id="5"><path d="M36.75 91.19995L266.05 91.19995L266.05 91.19995L266.05 108L266.05 108L36.75 108z" /></clipPath><clipPath id="6"><path d="M0 -0.9000244L595.3 -0.9000244L595.3 -0.9000244L595.3 841L595.3 841L0 841z" /></clipPath><clipPath id="7"><path d="M0 -0.9000244L595.3 -0.9000244L595.3 -0.9000244L595.3 841L595.3 841L0 841z" /></clipPath><clipPath id="8"><path d="M53.75 114.1L178.5 114.1L178.5 114.1L178.5 128.3L178.5 128.3L53.75 128.3z" /></clipPath><clipPath id="9"><path d="M0 -0.9000244L595.3 -0.9000244L595.3 -0.9000244L595.3 841L595.3 841L0 841z" /></clipPath><clipPath id="10"><path d="M53.85 141.05L178.6 141.05L178.6 141.05L178.6 159.05L178.6 159.05L53.85 159.05z" /></clipPath><clipPath id="11"><path d="M0 -0.9000244L595.3 -0.9000244L595.3 -0.9000244L595.3 841L595.3 841L0 841z" /></clipPath><clipPath id="12"><path d="M196.05 115.45L341.4 115.45L341.4 115.45L341.4 129.95L341.4 129.95L196.05 129.95z" /></clipPath><clipPath id="13"><path d="M0 -0.9000244L595.3 -0.9000244L595.3 -0.9000244L595.3 841L595.3 841L0 841z" /></clipPath><clipPath id="14"><path d="M195.65 140.3L341 140.3L341 140.3L341 159.05L341 159.05L195.65 159.05z" /></clipPath><clipPath id="15"><path d="M0 -0.9000244L595.3 -0.9000244L595.3 -0.9000244L595.3 841L595.3 841L0 841z" /></clipPath><clipPath id="16"><path d="M35.95 237.35L538.75 237.35L538.75 237.35L538.75 308L538.75 308L35.95 308z" /></clipPath><clipPath id="17"><path d="M0 -0.9000244L595.3 -0.9000244L595.3 -0.9000244L595.3 841L595.3 841L0 841z" /></clipPath><clipPath id="18"><path d="M37.65 320.95L567.5 320.95L567.5 320.95L567.5 487.3L567.5 487.3L37.65 487.3z" /></clipPath><clipPath id="19"><path d="M0 -0.9000244L595.3 -0.9000244L595.3 -0.9000244L595.3 841L595.3 841L0 841z" /></clipPath><clipPath id="20"><path d="M35.95 523.4L565.35 523.4L565.35 523.4L565.35 649.15L565.35 649.15L35.95 649.15z" /></clipPath><clipPath id="21"><path d="M0 -0.9000244L595.3 -0.9000244L595.3 -0.9000244L595.3 841L595.3 841L0 841z" /></clipPath><clipPath id="22"><path d="M37.7 676.75L562.65 676.75L562.65 676.75L562.65 714.25L562.65 714.25L37.7 714.25z" /></clipPath><clipPath id="23"><path d="M0 -0.9000244L595.3 -0.9000244L595.3 -0.9000244L595.3 841L595.3 841L0 841z" /></clipPath><clipPath id="24"><path d="M0 -0.9000244L595.3 -0.9000244L595.3 -0.9000244L595.3 841L595.3 841L0 841z" /></clipPath><clipPath id="25"><path d="M68.25 206.95L141.4 206.95L141.4 206.95L141.4 227.05L141.4 227.05L68.25 227.05z" /></clipPath><clipPath id="26"><path d="M0 -0.9000244L595.3 -0.9000244L595.3 -0.9000244L595.3 841L595.3 841L0 841z" /></clipPath><clipPath id="27"><path d="M0 -0.9000244L595.3 -0.9000244L595.3 -0.9000244L595.3 841L595.3 841L0 841z" /></clipPath><clipPath id="28"><path d="M65.05 292.2L138.2 292.2L138.2 292.2L138.2 315L138.2 315L65.05 315z" /></clipPath><clipPath id="29"><path d="M0 -0.9000244L595.3 -0.9000244L595.3 -0.9000244L595.3 841L595.3 841L0 841z" /></clipPath><clipPath id="30"><path d="M64.3 494.2L137.45 494.2L137.45 494.2L137.45 517L137.45 517L64.3 517z" /></clipPath><clipPath id="31"><path d="M0 -0.9000244L595.3 -0.9000244L595.3 -0.9000244L595.3 841L595.3 841L0 841z" /></clipPath><clipPath id="32"><path d="M65.05 650.95L138.2 650.95L138.2 650.95L138.2 673.7499L138.2 673.7499L65.05 673.7499z" /></clipPath><clipPath id="33"><path d="M0 -0.9000244L595.3 -0.9000244L595.3 -0.9000244L595.3 841L595.3 841L0 841z" /></clipPath><clipPath id="34"><path d="M0 -0.9000244L595.3 -0.9000244L595.3 -0.9000244L595.3 841L595.3 841L0 841z" /></clipPath><clipPath id="35"><path d="M53.75 166.85L178.5 166.85L178.5 166.85L178.5 181.05L178.5 181.05L53.75 181.05z" /></clipPath><clipPath id="36"><path d="M0 -0.9000244L595.3 -0.9000244L595.3 -0.9000244L595.3 841L595.3 841L0 841z" /></clipPath><clipPath id="37"><path d="M195.85 166.6L357.7 166.6L357.7 166.6L357.7 184.05L357.7 184.05L195.85 184.05z" /></clipPath><clipPath id="38"><path d="M0 -0.9000244L595.3 -0.9000244L595.3 -0.9000244L595.3 841L595.3 841L0 841z" /></clipPath><clipPath id="39"><path d="M0 -0.9000244L595.3 -0.9000244L595.3 -0.9000244L595.3 841L595.3 841L0 841z" /></clipPath><clipPath id="40"><path d="M65.05 718.45L138.2 718.45L138.2 718.45L138.2 741.2499L138.2 741.2499L65.05 741.2499z" /></clipPath><clipPath id="41"><path d="M0 -0.9000244L595.3 -0.9000244L595.3 -0.9000244L595.3 841L595.3 841L0 841z" /></clipPath><clipPath id="42"><path d="M0 -0.9000244L595.3 -0.9000244L595.3 -0.9000244L595.3 841L595.3 841L0 841z" /></clipPath><clipPath id="43"><path d="M35.45 746.5L560.4 746.5L560.4 746.5L560.4 784L560.4 784L35.45 784z" /></clipPath><clipPath id="44"><path d="M0 -0.9000244L595.3 -0.9000244L595.3 -0.9000244L595.3 841L595.3 841L0 841z" /></clipPath></defs><g transform="matrix(1.333333 0 0 1.333333 0 0)"><g><g clip-path="url(#1)"><g clip-path="url(#2)"><g clip-path="url(#3)"></g></g><g clip-path="url(#4)"><g clip-path="url(#5)"></g></g><g clip-path="url(#6)"><path transform="matrix(1 0 0 -1 0 841)" d="M43.75 729.575L328.75 729.575L328.75 729.575L328.75 728.825L328.75 728.825L43.75 728.825z" stroke="none" fill="#44546B" fill-rule="winding" /><path transform="matrix(1 0 0 -1 0 841)" d="M43.75 704.425L328.75 704.425L328.75 704.425L328.75 703.675L328.75 703.675L43.75 703.675z" stroke="none" fill="#44546B" fill-rule="winding" /><path transform="matrix(1 0 0 -1 0 841)" d="M43.75 679.525L328.75 679.525L328.75 679.525L328.75 678.775L328.75 678.775L43.75 678.775z" stroke="none" fill="#44546B" fill-rule="winding" /><path transform="matrix(1 0 0 -1 0 841)" d="M42.12 716.14C 42.15 719.894 45.206 722.95 48.975 722.95C 52.744 722.95 55.8 719.894 55.8 716.125C 55.8 712.356 52.744 709.3 48.975 709.3C 45.206 709.3 42.15 712.356 42.12 716.14" stroke="none" fill="#2D3E50" fill-rule="evenodd" /><path transform="matrix(1 0 0 -1 0 841)" d="M48.66 715.4041C 48.66 715.338 48.66 715.272 48.66 715.272C 48.594 715.2061 48.594 715.2061 48.529 715.14C 48.332 715.0081 48.201 714.942 48.004 714.877C 47.807 714.811 47.61 714.745 47.479 714.679C 47.282 714.613 47.151 714.547 47.019 714.415C 46.888 714.2841 46.822 714.086 46.822 713.8881C 46.757 713.822 46.757 713.757 46.757 713.691C 46.757 713.625 46.757 713.559 46.757 713.493C 46.757 713.493 46.691 713.493 46.691 713.427C 46.494 713.493 46.232 713.493 45.969 713.493C 45.772 713.559 45.51 713.559 45.313 713.625C 45.116 713.625 44.919 713.691 44.788 713.691C 44.657 713.757 44.591 713.757 44.525 713.757C 44.46 713.822 44.46 713.954 44.394 714.152C 44.394 714.415 44.394 714.679 44.46 715.0081C 44.46 715.2061 44.525 715.338 44.657 715.469C 44.788 715.535 44.919 715.601 45.116 715.667C 45.313 715.733 45.444 715.799 45.641 715.865C 45.838 715.865 45.969 715.931 46.101 716.062C 46.232 716.1281 46.297 716.194 46.363 716.26C 46.429 716.326 46.494 716.392 46.494 716.458C 46.56 716.524 46.56 716.5891 46.56 716.655C 46.56 716.721 46.56 716.787 46.56 716.853C 46.494 716.985 46.494 717.051 46.429 717.116C 46.363 717.248 46.232 717.314 46.166 717.38C 46.101 717.38 46.101 717.446 46.035 717.512C 46.035 717.578 45.969 717.643 45.969 717.709C 45.969 717.775 45.904 717.841 45.904 717.973C 45.838 717.973 45.838 717.973 45.772 718.039C 45.772 718.039 45.707 718.105 45.707 718.105C 45.641 718.171 45.641 718.236 45.576 718.302C 45.576 718.434 45.576 718.5 45.576 718.566C 45.576 718.632 45.576 718.698 45.576 718.763C 45.641 718.829 45.641 718.895 45.707 718.961C 45.707 719.1591 45.707 719.356 45.707 719.554C 45.772 719.686 45.772 719.8831 45.838 720.0811C 45.904 720.2791 45.969 720.41 46.101 720.608C 46.166 720.74 46.297 720.872 46.429 720.937C 46.56 721.0031 46.691 721.135 46.822 721.135C 46.888 721.201 47.019 721.267 47.151 721.267C 47.282 721.267 47.413 721.267 47.544 721.267C 47.873 721.267 48.135 721.201 48.398 721.069C 48.594 720.937 48.791 720.806 48.923 720.674C 48.988 720.608 49.054 720.476 49.054 720.41C 49.119 720.2791 49.119 720.213 49.185 720.0811C 49.054 720.015 48.923 719.949 48.791 719.818C 48.66 719.686 48.529 719.554 48.463 719.356C 48.332 719.225 48.266 719.027 48.201 718.829C 48.135 718.632 48.069 718.434 48.004 718.236C 48.004 718.039 48.004 717.841 48.004 717.578C 47.938 717.512 47.873 717.446 47.873 717.38C 47.873 717.38 47.873 717.248 47.807 717.182C 47.807 717.116 47.873 717.051 47.873 716.919C 47.873 716.787 47.938 716.721 48.004 716.655C 48.004 716.655 48.069 716.5891 48.069 716.524C 48.135 716.524 48.135 716.524 48.201 716.458C 48.201 716.392 48.201 716.26 48.266 716.194C 48.266 716.1281 48.332 716.062 48.332 715.996C 48.398 715.931 48.398 715.865 48.463 715.799C 48.529 715.799 48.529 715.733 48.594 715.733C 48.594 715.667 48.594 715.667 48.66 715.667C 48.66 715.601 48.66 715.601 48.66 715.535C 48.66 715.535 48.66 715.469 48.66 715.4041M53.582 713.691C 53.582 713.625 53.582 713.559 53.648 713.427C 53.648 713.295 53.648 713.1641 53.648 713.032C 53.648 712.9 53.648 712.768 53.648 712.702C 53.582 712.571 53.582 712.505 53.517 712.439C 53.517 712.373 53.451 712.373 53.32 712.307C 53.188 712.307 53.057 712.241 52.86 712.241C 52.729 712.175 52.532 712.175 52.27 712.11C 52.073 712.11 51.876 712.11 51.613 712.044C 51.416 712.044 51.22 712.044 51.023 712.044C 50.826 711.978 50.629 711.978 50.498 711.978C 50.301 711.978 50.17 711.978 49.973 712.044C 49.776 712.044 49.579 712.044 49.316 712.044C 49.119 712.11 48.923 712.11 48.726 712.11C 48.529 712.175 48.332 712.175 48.135 712.175C 47.938 712.241 47.807 712.241 47.676 712.307C 47.544 712.307 47.479 712.307 47.479 712.373C 47.413 712.373 47.347 712.505 47.347 712.768C 47.347 712.966 47.347 713.23 47.347 713.559C 47.413 713.757 47.479 713.8881 47.61 714.02C 47.741 714.086 47.873 714.218 48.069 714.2841C 48.201 714.349 48.398 714.349 48.594 714.415C 48.791 714.481 48.923 714.547 49.054 714.613C 49.185 714.679 49.251 714.745 49.316 714.811C 49.382 714.877 49.448 714.942 49.448 715.0081C 49.448 715.074 49.513 715.14 49.513 715.2061C 49.513 715.272 49.513 715.338 49.448 715.4041C 49.448 715.535 49.448 715.667 49.316 715.733C 49.251 715.799 49.185 715.865 49.119 715.931C 49.054 715.996 49.054 715.996 48.988 716.062C 48.988 716.1281 48.923 716.194 48.923 716.26C 48.857 716.392 48.857 716.458 48.857 716.524C 48.791 716.524 48.791 716.5891 48.726 716.5891C 48.726 716.5891 48.66 716.655 48.66 716.721C 48.594 716.721 48.594 716.787 48.529 716.919C 48.529 716.985 48.463 717.051 48.463 717.116C 48.529 717.248 48.529 717.314 48.529 717.314C 48.594 717.38 48.594 717.446 48.66 717.512C 48.66 717.709 48.66 717.907 48.66 718.105C 48.726 718.302 48.726 718.434 48.791 718.632C 48.857 718.829 48.923 719.027 49.054 719.1591C 49.119 719.29 49.251 719.422 49.382 719.488C 49.448 719.62 49.579 719.686 49.71 719.752C 49.841 719.752 49.973 719.818 50.104 719.818C 50.235 719.8831 50.366 719.8831 50.498 719.8831C 50.826 719.8831 51.088 719.818 51.351 719.686C 51.548 719.554 51.745 719.422 51.876 719.29C 52.007 719.093 52.073 718.895 52.138 718.698C 52.204 718.5 52.27 718.302 52.27 718.105C 52.335 717.907 52.335 717.709 52.335 717.512C 52.335 717.446 52.401 717.446 52.401 717.38C 52.467 717.38 52.467 717.314 52.467 717.248C 52.467 717.182 52.467 717.116 52.467 717.051C 52.467 716.919 52.467 716.853 52.401 716.787C 52.335 716.721 52.335 716.655 52.27 716.5891C 52.27 716.5891 52.204 716.524 52.138 716.524C 52.138 716.458 52.073 716.392 52.073 716.26C 52.073 716.194 52.007 716.1281 52.007 716.062C 51.941 715.996 51.876 715.996 51.876 715.931C 51.81 715.865 51.745 715.865 51.745 715.799C 51.679 715.799 51.679 715.733 51.613 715.733C 51.613 715.667 51.548 715.667 51.548 715.601C 51.548 715.601 51.482 715.535 51.482 715.469C 51.482 715.4041 51.482 715.272 51.482 715.2061C 51.482 715.14 51.482 715.074 51.548 714.942C 51.548 714.877 51.613 714.811 51.745 714.745C 51.81 714.679 51.941 714.613 52.073 714.547C 52.204 714.481 52.335 714.415 52.467 714.415C 52.663 714.349 52.795 714.349 52.926 714.2841C 53.057 714.218 53.188 714.152 53.32 714.086C 53.451 713.954 53.517 713.8881 53.582 713.691z" stroke="none" fill="#FFFFFF" fill-rule="evenodd" /></g><g clip-path="url(#7)"><g clip-path="url(#8)"></g></g><g clip-path="url(#9)"><g clip-path="url(#10)"></g></g><g clip-path="url(#11)"><g clip-path="url(#12)"></g></g><g clip-path="url(#13)"><g clip-path="url(#14)"></g></g><g clip-path="url(#15)"><g clip-path="url(#16)"></g></g><g clip-path="url(#17)"><g clip-path="url(#18)"></g></g><g clip-path="url(#19)"><g clip-path="url(#20)"></g></g><g clip-path="url(#21)"><g clip-path="url(#22)"></g></g><g clip-path="url(#23)"><path transform="matrix(1 0 0 -1 0 841)" d="M38.1 547.3L150.458 547.3L150.458 547.3L163.351 527.552L163.351 527.552L38.1 527.552L38.1 527.552L38.1 547.3" stroke="none" fill="#44546B" fill-rule="evenodd" /><path transform="matrix(1 0 0 -1 0 841)" d="M165.197 531.65L553.55 531.65L553.55 531.65L555.95 527.5L555.95 527.5L168.797 527.5L168.797 527.5L165.197 531.65" stroke="none" fill="#44546B" fill-rule="evenodd" /><path transform="matrix(1 0 0 -1 0 841)" d="M35.85 343.8L148.208 343.8L148.208 343.8L161.101 324.052L161.101 324.052L35.85 324.052L35.85 324.052L35.85 343.8" stroke="none" fill="#44546B" fill-rule="evenodd" /><path transform="matrix(1 0 0 -1 0 841)" d="M162.947 328.15L551.3 328.15L551.3 328.15L553.7 324L553.7 324L166.547 324L166.547 324L162.947 328.15" stroke="none" fill="#44546B" fill-rule="evenodd" /><path transform="matrix(1 0 0 -1 0 841)" d="M35.1 186.45L147.458 186.45L147.458 186.45L160.351 166.702L160.351 166.702L35.1 166.702L35.1 166.702L35.1 186.45" stroke="none" fill="#44546B" fill-rule="evenodd" /><path transform="matrix(1 0 0 -1 0 841)" d="M162.197 170.8L550.55 170.8L550.55 170.8L552.95 166.65L552.95 166.65L165.797 166.65L165.797 166.65L162.197 170.8" stroke="none" fill="#44546B" fill-rule="evenodd" /><path transform="matrix(1 0 0 -1 0 841)" d="M40.3 632.1L152.647 632.1L152.647 632.1L165.539 612.3521L165.539 612.3521L40.3 612.3521L40.3 612.3521L40.3 632.1" stroke="none" fill="#44546B" fill-rule="evenodd" /><path transform="matrix(1 0 0 -1 0 841)" d="M167.384 616.45L555.7 616.45L555.7 616.45L558.1 612.3L558.1 612.3L170.984 612.3L170.984 612.3L167.384 616.45" stroke="none" fill="#44546B" fill-rule="evenodd" /></g><g clip-path="url(#24)"><g clip-path="url(#25)"></g></g><g clip-path="url(#26)"><path transform="matrix(1 0 0 -1 0 841)" d="M56.566 617.829C 58.467 617.829 60.087 618.249 60.087 618.739C 60.087 619.158 58.467 619.578 56.566 619.578C 54.594 619.578 53.045 619.158 53.045 618.739C 53.045 618.249 54.594 617.829 56.566 617.829zM56.636 623.285C 59.383 623.285 60.932 621.816 60.932 621.816C 60.932 618.319 60.932 618.319 60.932 618.319C 60.932 618.319 59.383 617.2 56.425 617.2C 53.467 617.2 52.341 618.319 52.341 618.319C 52.341 621.816 52.341 621.816 52.341 621.816C 52.341 621.816 53.819 623.285 56.636 623.285zM61.495 622.3051C 61.495 622.3051 59.523 624.334 56.707 624.334C 54.031 624.334 51.355 622.3051 51.355 622.3051C 49.806 622.9351 49.806 622.9351 49.806 622.9351C 49.806 621.116 49.806 621.116 49.806 621.116C 50.087 621.047 50.228 620.837 50.228 620.557C 50.228 620.277 50.087 620.067 49.806 619.997C 50.298 618.0391 50.298 618.0391 50.298 618.0391C 48.96 618.0391 48.96 618.0391 48.96 618.0391C 49.383 619.997 49.383 619.997 49.383 619.997C 49.172 620.067 49.031 620.277 49.031 620.557C 49.031 620.767 49.172 620.9771 49.383 621.116C 49.383 623.075 49.383 623.075 49.383 623.075C 47.2 623.984 47.2 623.984 47.2 623.984C 56.848 628.25 56.848 628.25 56.848 628.25C 65.65 623.9141 65.65 623.9141 65.65 623.9141C 61.495 622.3051 61.495 622.3051 61.495 622.3051z" stroke="none" fill="#FFFFFF" fill-rule="evenodd" /></g><g clip-path="url(#27)"><g clip-path="url(#28)"></g></g><g clip-path="url(#29)"><g clip-path="url(#30)"></g></g><g clip-path="url(#31)"><g clip-path="url(#32)"></g></g><g clip-path="url(#33)"><path transform="matrix(1 0 0 -1 0 841)" d="M51.301 537.718C 49.447 537.718 49.447 537.718 49.447 537.718C 49.216 537.718 49.1 537.488 49.1 537.257C 49.1 535.528 49.1 535.528 49.1 535.528C 49.1 535.182 49.216 535.066 49.447 535.066C 51.301 535.066 51.301 535.066 51.301 535.066C 51.532 535.066 51.764 535.182 51.764 535.528C 51.764 537.257 51.764 537.257 51.764 537.257C 51.764 537.488 51.532 537.718 51.301 537.718zM51.416 542.1C 49.563 542.1 49.563 542.1 49.563 542.1C 49.216 542.1 49.1 541.869 49.1 541.639C 49.1 539.7941 49.1 539.7941 49.1 539.7941C 49.1 539.563 49.216 539.333 49.563 539.333C 51.416 539.333 51.416 539.333 51.416 539.333C 51.648 539.333 51.88 539.563 51.88 539.7941C 51.88 541.639 51.88 541.639 51.88 541.639C 51.88 541.869 51.648 542.1 51.416 542.1zM51.416 533.567C 49.563 533.567 49.563 533.567 49.563 533.567C 49.216 533.567 49.1 533.337 49.1 533.106C 49.1 531.261 49.1 531.261 49.1 531.261C 49.1 531.031 49.216 530.8 49.563 530.8C 51.416 530.8 51.416 530.8 51.416 530.8C 51.648 530.8 51.88 531.031 51.88 531.261C 51.88 533.106 51.88 533.106 51.88 533.106C 51.88 533.337 51.648 533.567 51.416 533.567zM53.038 531.6071C 53.038 531.838 53.154 531.953 53.385 531.953C 59.176 531.953 59.176 531.953 59.176 531.953C 59.408 531.953 59.523 531.838 59.523 531.6071C 59.523 531.146 59.523 531.146 59.523 531.146C 59.523 530.915 59.408 530.8 59.176 530.8C 53.385 530.8 53.385 530.8 53.385 530.8C 53.154 530.8 53.038 530.915 53.038 531.146C 53.038 531.6071 53.038 531.6071 53.038 531.6071zM53.038 533.2211C 53.038 533.452 53.154 533.567 53.385 533.567C 59.987 533.567 59.987 533.567 59.987 533.567C 60.218 533.567 60.45 533.452 60.45 533.2211C 60.45 532.76 60.45 532.76 60.45 532.76C 60.45 532.53 60.218 532.4141 59.987 532.4141C 53.385 532.4141 53.385 532.4141 53.385 532.4141C 53.154 532.4141 53.038 532.53 53.038 532.76C 53.038 533.2211 53.038 533.2211 53.038 533.2211zM53.038 535.7581C 53.038 535.989 53.154 536.219 53.385 536.219C 59.176 536.219 59.176 536.219 59.176 536.219C 59.408 536.219 59.523 535.989 59.523 535.7581C 59.523 535.412 59.523 535.412 59.523 535.412C 59.523 535.182 59.408 535.066 59.176 535.066C 53.385 535.066 53.385 535.066 53.385 535.066C 53.154 535.066 53.038 535.182 53.038 535.412C 53.038 535.7581 53.038 535.7581 53.038 535.7581zM53.038 537.372C 53.038 537.603 53.154 537.834 53.385 537.834C 59.987 537.834 59.987 537.834 59.987 537.834C 60.218 537.834 60.45 537.603 60.45 537.372C 60.45 537.027 60.45 537.027 60.45 537.027C 60.45 536.796 60.218 536.681 59.987 536.681C 53.385 536.681 53.385 536.681 53.385 536.681C 53.154 536.681 53.038 536.796 53.038 537.027C 53.038 537.372 53.038 537.372 53.038 537.372zM53.038 540.14C 53.038 540.37 53.154 540.486 53.385 540.486C 59.176 540.486 59.176 540.486 59.176 540.486C 59.408 540.486 59.523 540.37 59.523 540.14C 59.523 539.679 59.523 539.679 59.523 539.679C 59.523 539.448 59.408 539.333 59.176 539.333C 53.385 539.333 53.385 539.333 53.385 539.333C 53.154 539.333 53.038 539.448 53.038 539.679C 53.038 540.14 53.038 540.14 53.038 540.14zM53.038 541.754C 53.038 541.869 53.154 542.1 53.385 542.1C 59.987 542.1 59.987 542.1 59.987 542.1C 60.218 542.1 60.45 541.869 60.45 541.754C 60.45 541.293 60.45 541.293 60.45 541.293C 60.45 541.062 60.218 540.947 59.987 540.947C 53.385 540.947 53.385 540.947 53.385 540.947C 53.154 540.947 53.038 541.062 53.038 541.293C 53.038 541.754 53.038 541.754 53.038 541.754z" stroke="none" fill="#FFFFFF" fill-rule="evenodd" /><path transform="matrix(1 0 0 -1 0 841)" d="M60.874 337.657C 61.035 337.495 61.1 337.301 61.1 337.107C 61.1 336.881 61.035 336.719 60.874 336.558C 58.707 334.391 58.707 334.391 58.707 334.391C 58.545 334.229 58.351 334.165 58.157 334.165C 57.963 334.165 57.769 334.229 57.608 334.391C 55.441 336.558 55.441 336.558 55.441 336.558C 55.279 336.719 55.215 336.881 55.215 337.107C 55.215 337.301 55.279 337.495 55.441 337.657C 57.608 339.824 57.608 339.824 57.608 339.824C 57.769 339.985 57.963 340.05 58.157 340.05C 58.351 340.05 58.545 339.985 58.707 339.824L58.707 339.824L60.874 337.657zM59.257 333.098C 59.451 333.098 59.613 333.033 59.774 332.871C 59.904 332.742 59.968 332.58 59.968 332.386C 59.968 329.444 59.968 329.444 59.968 329.444C 59.968 329.25 59.904 329.056 59.774 328.926C 59.613 328.797 59.451 328.7 59.257 328.7C 56.314 328.7 56.314 328.7 56.314 328.7C 56.12 328.7 55.959 328.797 55.797 328.926C 55.668 329.056 55.603 329.25 55.603 329.444C 55.603 332.386 55.603 332.386 55.603 332.386C 55.603 332.58 55.668 332.742 55.797 332.871C 55.959 333.033 56.12 333.098 56.314 333.098C 59.257 333.098 59.257 333.098 59.257 333.098zM53.404 333.098C 53.598 333.098 53.76 333.033 53.921 332.871C 54.051 332.742 54.148 332.58 54.148 332.386C 54.148 329.444 54.148 329.444 54.148 329.444C 54.148 329.25 54.051 329.056 53.921 328.926C 53.76 328.797 53.598 328.7 53.404 328.7C 50.461 328.7 50.461 328.7 50.461 328.7C 50.267 328.7 50.106 328.797 49.976 328.926C 49.815 329.056 49.75 329.25 49.75 329.444C 49.75 332.386 49.75 332.386 49.75 332.386C 49.75 332.58 49.815 332.742 49.976 332.871C 50.106 333.033 50.267 333.098 50.461 333.098C 53.404 333.098 53.404 333.098 53.404 333.098zM53.404 338.951C 53.598 338.951 53.76 338.854 53.921 338.724C 54.051 338.595 54.148 338.433 54.148 338.207C 54.148 335.297 54.148 335.297 54.148 335.297C 54.148 335.103 54.051 334.909 53.921 334.779C 53.76 334.618 53.598 334.553 53.404 334.553C 50.461 334.553 50.461 334.553 50.461 334.553C 50.267 334.553 50.106 334.618 49.976 334.779C 49.815 334.909 49.75 335.103 49.75 335.297C 49.75 338.207 49.75 338.207 49.75 338.207C 49.75 338.433 49.815 338.595 49.976 338.724C 50.106 338.854 50.267 338.951 50.461 338.951C 53.404 338.951 53.404 338.951 53.404 338.951z" stroke="none" fill="#FFFFFF" fill-rule="evenodd" /><path transform="matrix(1 0 0 -1 0 841)" d="M63.713 175.567C 63.8 174.96 63.8 174.353 63.625 173.747C 63.451 173.14 63.189 172.533 62.665 172.1C 62.403 171.84 62.141 171.6671 61.792 171.493C 61.53 171.32 61.181 171.147 60.832 171.06C 60.395 170.973 60.046 170.887 59.697 170.887C 59.26 170.887 58.911 170.887 58.562 170.887C 57.776 170.887 57.776 170.887 57.776 170.887C 57.776 176 57.776 176 57.776 176C 57.165 176.087 56.728 176.26 56.204 176.52C 55.855 176.6931 55.593 176.867 55.244 177.213C 54.982 177.473 54.72 177.733 54.458 178.08C 54.283 178.427 54.109 178.773 54.022 179.207C 53.847 179.553 53.847 179.987 53.847 180.42C 53.847 181.027 53.934 181.547 54.196 182.067C 54.633 181.98 54.982 181.807 55.418 181.633C 55.768 181.373 56.117 181.113 56.379 180.767C 56.466 181.373 56.641 181.98 56.99 182.5C 57.339 183.02 57.776 183.453 58.212 183.8C 58.736 183.453 59.173 183.02 59.522 182.5C 59.871 181.98 60.046 181.373 60.133 180.767C 60.395 181.027 60.744 181.373 61.093 181.547C 61.53 181.807 61.879 181.98 62.316 182.067C 62.578 181.547 62.665 181.027 62.665 180.42C 62.665 179.987 62.578 179.64 62.49 179.207C 62.403 178.773 62.228 178.427 61.967 178.08C 61.792 177.733 61.53 177.473 61.268 177.213C 60.919 176.867 60.57 176.6931 60.22 176.52C 59.958 176.347 59.697 176.26 59.435 176.173C 59.173 176.087 58.911 176.087 58.562 176C 58.562 172.36 58.562 172.36 58.562 172.36C 58.736 172.707 58.911 173.053 59.085 173.4C 59.347 173.747 59.609 174.093 59.958 174.353C 60.133 174.613 60.395 174.787 60.744 174.96C 61.093 175.22 61.355 175.307 61.705 175.48C 62.054 175.567 62.403 175.653 62.752 175.653C 63.102 175.653 63.363 175.653 63.713 175.567zM52.625 175.567C 53.236 175.7401 53.934 175.7401 54.545 175.567C 55.157 175.393 55.768 175.047 56.204 174.613C 56.466 174.353 56.641 174.093 56.815 173.747C 56.99 173.487 57.165 173.14 57.252 172.88C 57.339 172.533 57.339 172.187 57.339 171.84C 57.339 171.493 57.339 171.233 57.252 170.887C 56.641 170.8 56.03 170.8 55.331 171.06C 54.72 171.233 54.196 171.58 53.672 172.1C 53.148 172.533 52.887 173.14 52.712 173.747C 52.537 174.353 52.45 174.96 52.625 175.567z" stroke="none" fill="#FFFFFF" fill-rule="evenodd" /><path transform="matrix(1 0 0 -1 0 841)" d="M181.68 691.0601C 181.7 694.844 184.756 697.9 188.525 697.9C 192.294 697.9 195.35 694.844 195.35 691.075C 195.35 687.306 192.294 684.25 188.525 684.25C 184.756 684.25 181.7 687.306 181.68 691.0601" stroke="none" fill="#2D3E50" fill-rule="evenodd" /><path transform="matrix(1 0 0 -1 0 841)" d="M188.417 694.999C 189.831 694.999 191.057 693.9091 191.057 692.546C 191.057 691.184 189.831 690.0031 188.417 690.0031C 187.003 690.0031 185.871 691.184 185.871 692.546C 185.871 693.9091 187.003 694.999 188.417 694.999zM188.417 686.369C 188.417 686.369 192.283 690.457 192.283 692.546C 192.283 694.545 190.586 696.271 188.417 696.271C 186.343 696.271 184.551 694.545 184.551 692.546C 184.551 690.457 188.417 686.369 188.417 686.369z" stroke="none" fill="#FFFFFF" fill-rule="evenodd" /><path transform="matrix(1 0 0 -1 0 841)" d="M-0.72 841.9L594.48 841.9L594.48 841.9L594.48 827.26L594.48 827.26L-0.72 827.26z" stroke="none" fill="#44546B" fill-rule="evenodd" /><path transform="matrix(1 0 0 -1 0 841)" d="M204.882 831.538L388.482 831.538L388.482 831.538L373.124 812.5L373.124 812.5L216.779 812.5L216.779 812.5L204.882 831.538" stroke="none" fill="#44546B" fill-rule="evenodd" /><g transform="matrix(0.24 0 0 0.2425397 0 825.4999)"><g transform="matrix(1 0 0 1 0 0)"><image x="0" y="0" xlink:href="img_01.png" width="2480" height="63" /></g></g><path transform="matrix(1 0 0 -1 0 841)" d="M224.6 27.20001L381.205 27.20001L381.205 27.20001L392.9 8.25L392.9 8.25L209.25 8.25L209.25 8.25L224.6 27.20001" stroke="none" fill="#4C5C74" fill-rule="evenodd" /><path transform="matrix(1 0 0 -1 0 841)" d="M43.75 653.675L328.75 653.675L328.75 653.675L328.75 652.925L328.75 652.925L43.75 652.925z" stroke="none" fill="#44546B" fill-rule="winding" /></g><g clip-path="url(#34)"><g clip-path="url(#35)"></g></g><g clip-path="url(#36)"><g clip-path="url(#37)"></g></g><g clip-path="url(#38)"><path transform="matrix(1 0 0 -1 0 841)" d="M181.68 665.38C 181.7 669.194 184.756 672.25 188.525 672.25C 192.294 672.25 195.35 669.194 195.35 665.425C 195.35 661.656 192.294 658.6 188.525 658.6C 184.756 658.6 181.7 661.656 181.68 665.38" stroke="none" fill="#2D3E50" fill-rule="evenodd" /><path transform="matrix(1 0 0 -1 0 841)" d="M188.513 664.221L193.094 667.928L193.094 667.928L193.094 668.802L193.094 668.802L183.931 668.802L183.931 668.802L183.931 667.928L183.931 667.928L188.513 664.221zM193.094 663.105L193.094 667.355L193.094 667.355L190.515 665.366L190.515 665.366L193.094 663.105zM186.51 665.366L183.931 667.355L183.931 667.355L183.931 663.105L183.931 663.105L186.51 665.366zM193.094 662.533L190.242 665.095L190.242 665.095L188.513 663.678L188.513 663.678L186.783 665.095L186.783 665.095L183.931 662.533L183.931 662.533L193.094 662.533z" stroke="none" fill="#FFFFFF" fill-rule="evenodd" /><path transform="matrix(1 0 0 -1 0 841)" d="M42.12 665.38C 42.15 669.194 45.206 672.25 48.975 672.25C 52.744 672.25 55.8 669.194 55.8 665.425C 55.8 661.656 52.744 658.6 48.975 658.6C 45.206 658.6 42.15 661.656 42.12 665.38" stroke="none" fill="#2D3E50" fill-rule="evenodd" /><path transform="matrix(1 0 0 -1 0 841)" d="M51.394 664.326C 51.394 664.219 51.341 664.113 51.182 664.113C 46.396 664.113 46.396 664.113 46.396 664.113C 46.289 664.113 46.236 664.219 46.236 664.326C 46.236 668.6281 46.236 668.6281 46.236 668.6281C 46.236 668.734 46.289 668.841 46.396 668.841C 51.182 668.841 51.182 668.841 51.182 668.841C 51.341 668.841 51.394 668.734 51.394 668.6281C 51.394 664.326 51.394 664.326 51.394 664.326zM48.789 662.201C 48.47 662.201 48.257 662.466 48.257 662.785C 48.257 663.104 48.47 663.369 48.789 663.369C 49.108 663.369 49.374 663.104 49.374 662.785C 49.374 662.466 49.108 662.201 48.789 662.201zM48.044 669.6381C 49.586 669.6381 49.586 669.6381 49.586 669.6381C 49.693 669.6381 49.746 669.584 49.746 669.531C 49.746 669.425 49.693 669.372 49.586 669.372C 48.044 669.372 48.044 669.372 48.044 669.372C 47.938 669.372 47.885 669.425 47.885 669.531C 47.885 669.584 47.938 669.6381 48.044 669.6381zM51.182 670.222C 46.449 670.222 46.449 670.222 46.449 670.222C 45.97 670.222 45.598 669.85 45.598 669.425C 45.598 662.095 45.598 662.095 45.598 662.095C 45.598 661.617 45.97 661.298 46.449 661.298C 48.416 661.298 48.416 661.298 48.416 661.298C 49.533 661.298 49.533 661.298 49.533 661.298C 51.182 661.298 51.182 661.298 51.182 661.298C 51.66 661.298 51.979 661.617 51.979 662.095C 51.979 669.425 51.979 669.425 51.979 669.425C 51.979 669.85 51.66 670.222 51.182 670.222z" stroke="none" fill="#FFFFFF" fill-rule="evenodd" /><path transform="matrix(1 0 0 -1 0 841)" d="M42 691.0601C 41.95 694.844 45.006 697.9 48.775 697.9C 52.544 697.9 55.6 694.844 55.6 691.075C 55.6 687.306 52.544 684.25 48.775 684.25C 45.006 684.25 41.95 687.306 42 691.0601" stroke="none" fill="#2D3E50" fill-rule="evenodd" /><path transform="matrix(1 0 0 -1 0 841)" d="M49.645 688.304C 50.091 688.304 50.403 687.903 50.314 687.413C 50.224 687.012 49.868 686.655 49.467 686.655C 49.11 686.655 48.799 687.012 48.799 687.413C 48.799 687.903 49.155 688.304 49.645 688.304zM45.902 690.398C 45.902 692.848 45.902 692.848 45.902 692.848C 48.799 692.269 48.799 692.269 48.799 692.269C 52.14 692.848 52.14 692.848 52.14 692.848C 52.14 689.863 52.14 689.863 52.14 689.863C 49.244 689.061 49.244 689.061 49.244 689.061C 45.902 690.398 45.902 690.398 45.902 690.398zM46.927 689.195C 46.927 689.195 49.155 688.66 49.333 688.66C 49.333 688.66 47.907 687.858 48.888 686.566C 46.481 688.0811 46.481 688.0811 46.481 688.0811C 46.481 688.0811 46.303 688.8831 46.927 689.195zM46.348 687.858C 45.457 687.413 45.457 687.413 45.457 687.413C 45.457 687.858 45.457 687.858 45.457 687.858C 45.011 687.858 45.011 687.858 45.011 687.858C 45.59 688.215 45.59 688.215 45.59 688.215C 46.348 687.858 46.348 687.858 46.348 687.858zM45.679 688.304C 45.679 688.304 44.833 688.8831 43.808 689.061C 43.808 689.061 43.496 689.997 44.476 690.531C 46.125 689.507 46.125 689.507 46.125 689.507C 46.125 689.507 45.546 689.417 45.679 688.304zM52.987 691.6C 53.121 691.6 53.121 691.6 53.121 691.6C 53.121 693.338 53.121 693.338 53.121 693.338C 49.021 692.714 49.021 692.714 49.021 692.714C 44.699 693.382 44.699 693.382 44.699 693.382C 44.699 694.273 44.699 694.273 44.699 694.273C 48.799 694.808 48.799 694.808 48.799 694.808C 53.254 694.14 53.254 694.14 53.254 694.14C 53.344 694.14 53.344 694.14 53.344 694.14C 53.344 691.6 53.344 691.6 53.344 691.6C 53.477 691.6 53.477 691.6 53.477 691.6C 53.477 691.066 53.477 691.066 53.477 691.066C 52.987 691.066 52.987 691.066 52.987 691.066C 52.987 691.6 52.987 691.6 52.987 691.6zM52.809 689.417C 52.987 690.843 52.987 690.843 52.987 690.843C 53.477 690.843 53.477 690.843 53.477 690.843C 53.656 689.417 53.656 689.417 53.656 689.417C 52.809 689.417 52.809 689.417 52.809 689.417z" stroke="none" fill="#FFFFFF" fill-rule="evenodd" /><path transform="matrix(1 0 0 -1 0 841)" d="M181.32 716.38C 181.3 720.144 184.356 723.2 188.125 723.2C 191.894 723.2 194.95 720.144 194.95 716.375C 194.95 712.606 191.894 709.55 188.125 709.55C 184.356 709.55 181.3 712.606 181.32 716.38" stroke="none" fill="#2D3E50" fill-rule="evenodd" /><path transform="matrix(1 0 0 -1 0 841)" d="M190.577 715.5031C 190.577 715.478 190.577 715.478 190.577 715.478C 190.528 715.528 190.478 715.577 190.403 715.577C 190.254 715.577 190.129 715.5031 190.129 715.354C 190.129 715.255 190.179 715.156 190.278 715.131C 190.254 715.131 190.254 715.131 190.254 715.131C 191.076 714.535 191.499 713.641 191.574 712.599C 192.122 712.599 192.122 712.599 192.122 712.599C 192.047 713.765 191.474 714.808 190.577 715.5031zM188.036 715.776C 186.641 715.776 185.52 716.893 185.52 718.2581C 185.52 719.624 186.641 720.741 188.036 720.741C 189.431 720.741 190.553 719.624 190.553 718.2581C 190.553 716.893 189.481 715.776 188.036 715.776zM191.051 718.2581C 191.051 719.897 189.705 721.212 188.036 721.212C 186.392 721.212 185.047 719.897 185.047 718.2581C 185.047 717.315 185.495 716.471 186.193 715.925C 184.922 715.304 184.05 714.038 183.95 712.599C 184.399 712.599 184.399 712.599 184.399 712.599C 184.498 713.9641 185.395 715.156 186.641 715.652C 187.015 715.453 187.563 715.304 188.036 715.304C 188.51 715.304 188.958 715.4041 189.332 715.577C 189.656 715.776 189.656 715.776 189.656 715.776C 189.905 715.925 189.905 715.925 189.905 715.925C 190.602 716.471 191.051 717.315 191.051 718.2581z" stroke="none" fill="#FFFFFF" fill-rule="evenodd" /><path transform="matrix(1 0 0 -1 0 841)" d="M36.6 119.7L148.958 119.7L148.958 119.7L161.851 99.95203L161.851 99.95203L36.6 99.95203L36.6 99.95203L36.6 119.7" stroke="none" fill="#44546B" fill-rule="evenodd" /><path transform="matrix(1 0 0 -1 0 841)" d="M163.697 104.05L552.05 104.05L552.05 104.05L554.45 99.90002L554.45 99.90002L167.297 99.90002L167.297 99.90002L163.697 104.05" stroke="none" fill="#44546B" fill-rule="evenodd" /></g><g clip-path="url(#39)"><g clip-path="url(#40)"></g></g><g clip-path="url(#41)"><path transform="matrix(1 0 0 -1 0 841)" d="M54.316 105.579C 56.217 105.579 57.837 105.999 57.837 106.489C 57.837 106.908 56.217 107.328 54.316 107.328C 52.344 107.328 50.795 106.908 50.795 106.489C 50.795 105.999 52.344 105.579 54.316 105.579zM54.386 111.035C 57.133 111.035 58.682 109.566 58.682 109.566C 58.682 106.069 58.682 106.069 58.682 106.069C 58.682 106.069 57.133 104.95 54.175 104.95C 51.217 104.95 50.091 106.069 50.091 106.069C 50.091 109.566 50.091 109.566 50.091 109.566C 50.091 109.566 51.569 111.035 54.386 111.035zM59.245 110.0551C 59.245 110.0551 57.273 112.084 54.457 112.084C 51.781 112.084 49.105 110.0551 49.105 110.0551C 47.556 110.685 47.556 110.685 47.556 110.685C 47.556 108.866 47.556 108.866 47.556 108.866C 47.837 108.797 47.978 108.587 47.978 108.307C 47.978 108.027 47.837 107.817 47.556 107.748C 48.048 105.789 48.048 105.789 48.048 105.789C 46.71 105.789 46.71 105.789 46.71 105.789C 47.133 107.748 47.133 107.748 47.133 107.748C 46.922 107.817 46.781 108.027 46.781 108.307C 46.781 108.517 46.922 108.7271 47.133 108.866C 47.133 110.825 47.133 110.825 47.133 110.825C 44.95 111.734 44.95 111.734 44.95 111.734C 54.598 116 54.598 116 54.598 116C 63.4 111.664 63.4 111.664 63.4 111.664C 59.245 110.0551 59.245 110.0551 59.245 110.0551z" stroke="none" fill="#FFFFFF" fill-rule="evenodd" /></g><g clip-path="url(#42)"><g clip-path="url(#43)"></g></g><g clip-path="url(#44)"><g transform="matrix(0.24775 0 0 0.247875 399.6 37.26001)"><g transform="matrix(1 0 0 1 0 0)"><image x="0" y="0" xlink:href="img_02.png" width="480" height="640" /></g></g></g></g></g></g></svg>